<svg width="28" height="22" viewBox="0 0 28 22" fill="none" xmlns="http://www.w3.org/2000/svg">
<path d="M26.6033 21.1673H7.87986C7.10818 21.1673 6.48273 20.5419 6.48273 19.7702C6.48273 18.9985 7.10818 18.373 7.87986 18.373H26.6029C27.3746 18.373 28 18.9985 28 19.7702C28 20.5419 27.375 21.1673 26.6033 21.1673Z" fill="#204745"/>
<path d="M26.6033 12.3968H7.87986C7.10818 12.3968 6.48273 11.7714 6.48273 10.9997C6.48273 10.228 7.10818 9.60254 7.87986 9.60254H26.6029C27.3746 9.60254 28 10.228 28 10.9997C28.0005 11.7714 27.375 12.3968 26.6033 12.3968Z" fill="#204745"/>
<path d="M26.6033 3.62728H7.87986C7.10818 3.62728 6.48273 3.00183 6.48273 2.23014C6.48273 1.45846 7.10818 0.833008 7.87986 0.833008H26.6029C27.3746 0.833008 28 1.45846 28 2.23014C28 3.00183 27.375 3.62728 26.6033 3.62728Z" fill="#204745"/>
<path d="M1.87635 4.21462C2.91263 4.21462 3.75271 3.37455 3.75271 2.33827C3.75271 1.30199 2.91263 0.461914 1.87635 0.461914C0.840072 0.461914 0 1.30199 0 2.33827C0 3.37455 0.840072 4.21462 1.87635 4.21462Z" fill="#204745"/>
<path d="M1.87635 12.8767C2.91263 12.8767 3.75271 12.0367 3.75271 11.0004C3.75271 9.9641 2.91263 9.12402 1.87635 9.12402C0.840072 9.12402 0 9.9641 0 11.0004C0 12.0367 0.840072 12.8767 1.87635 12.8767Z" fill="#204745"/>
<path d="M1.87635 21.5379C2.91263 21.5379 3.75271 20.6978 3.75271 19.6615C3.75271 18.6252 2.91263 17.7852 1.87635 17.7852C0.840072 17.7852 0 18.6252 0 19.6615C0 20.6978 0.840072 21.5379 1.87635 21.5379Z" fill="#204745"/>
</svg>
