<svg width="24" height="24" viewBox="0 0 24 24" fill="none" xmlns="http://www.w3.org/2000/svg">
<g clip-path="url(#clip0_494_4061)">
<path d="M0 11.3828H11.3828V0H0V11.3828ZM1.5 1.5H9.88281V9.88281H1.5V1.5ZM0 24H11.3828V12.6172H0V24ZM1.5 14.117H9.88281V22.5H1.5V14.117ZM23.25 0.816211V2.31621H13.367V0.816211H23.25ZM13.367 9.0668H23.25V10.5668H13.367V9.0668ZM13.367 4.9416H23.25V6.4416H13.367V4.9416ZM13.367 13.4332H23.25V14.9332H13.367V13.4332ZM13.367 21.6838H23.25V23.1838H13.367V21.6838ZM13.367 17.5586H23.25V19.0586H13.367V17.5586Z" fill="#252525"/>
</g>
<defs>
<clipPath id="clip0_494_4061">
<rect width="24" height="24" fill="white"/>
</clipPath>
</defs>
</svg>
