<svg width="26" height="26" viewBox="0 0 26 26" fill="none" xmlns="http://www.w3.org/2000/svg">
<path d="M6.70002 0.400391C6.43752 0.400391 6.17502 0.575391 6.00002 0.837891L3.11252 5.12539L2.06252 3.55039C1.80002 3.11289 1.18752 3.02539 0.837524 3.28789C0.400024 3.55039 0.312524 4.16289 0.575024 4.51289L2.41252 7.22539C2.76252 7.75039 3.55002 7.75039 3.90002 7.22539L7.48752 1.88789C7.83752 1.27539 7.40002 0.400391 6.70002 0.400391ZM10.2875 3.11289C9.76252 3.11289 9.41252 3.55039 9.41252 3.98789C9.41252 4.51289 9.85002 4.86289 10.2875 4.86289H24.6375C25.1625 4.86289 25.5125 4.42539 25.5125 3.98789C25.5125 3.46289 25.075 3.11289 24.6375 3.11289H10.2875ZM6.70002 9.41289C6.43752 9.41289 6.17502 9.58789 6.00002 9.85039L3.11252 14.1379L2.06252 12.5629C1.80002 12.1254 1.18752 12.0379 0.837524 12.3004C0.400024 12.5629 0.312524 13.1754 0.575024 13.5254L2.41252 16.2379C2.76252 16.7629 3.55002 16.7629 3.90002 16.2379L7.48752 10.8129C7.92502 10.2004 7.40002 9.41289 6.70002 9.41289ZM10.2 12.1254C9.67502 12.1254 9.32502 12.5629 9.32502 13.0879C9.32502 13.6129 9.76252 13.9629 10.2875 13.9629H24.6375C25.1625 13.9629 25.6 13.5254 25.6 13.0879C25.6 12.5629 25.1625 12.2129 24.6375 12.2129H10.2C10.2875 12.1254 10.2875 12.1254 10.2 12.1254ZM6.70002 18.3379C6.43752 18.3379 6.17502 18.5129 6.00002 18.7754L3.11252 23.0629L2.06252 21.4879C1.80002 21.0504 1.18752 20.9629 0.837524 21.2254C0.400024 21.4879 0.312524 22.1004 0.575024 22.5379L2.41252 25.2504C2.76252 25.7754 3.55002 25.7754 3.90002 25.2504L7.48752 19.8254C7.83752 19.2129 7.40002 18.3379 6.70002 18.3379ZM10.2 21.0504C9.67502 21.0504 9.32502 21.4879 9.32502 22.0129C9.32502 22.5379 9.76252 22.8879 10.2875 22.8879H24.6375C25.1625 22.8879 25.6 22.5379 25.6 22.0129C25.6 21.4879 25.1625 21.1379 24.6375 21.1379H10.2C10.2875 21.0504 10.2875 21.0504 10.2 21.0504Z" fill="#204745"/>
</svg>
