<svg width="24" height="24" viewBox="0 0 24 24" fill="none" xmlns="http://www.w3.org/2000/svg">
<g clip-path="url(#clip0_486_2250)">
<path d="M15.323 14.0306C14.1784 14.0306 13.0338 15.6922 12.5169 16.5414C12.1476 16.726 10.7815 16.4306 9.19379 14.843C7.6061 13.2553 7.31071 11.8522 7.49533 11.5199C8.34456 11.003 10.0061 9.82142 10.0061 8.71372C9.96917 6.23988 5.83379 2.10449 3.35994 2.10449C1.10764 2.10449 -3.50775 8.34449 6.09225 17.9445C15.6184 27.4706 21.9323 22.8922 21.9323 20.6399C21.9323 18.166 17.7969 14.0306 15.323 14.0306ZM7.1261 16.9106C3.43379 13.2183 -0.923133 6.35065 3.47071 3.58142C5.16917 3.69218 8.49225 7.05218 8.49225 8.6768C8.38148 9.19372 6.68302 10.2645 6.46148 10.4491C5.2061 11.7045 6.35071 14.1414 8.12302 15.9137C9.89533 17.686 12.3323 18.8306 13.5876 17.5753L13.6615 17.5014L13.6984 17.4276C14.2522 16.5045 15.0276 15.6183 15.323 15.5445C16.9846 15.5814 20.3076 18.9045 20.4184 20.603C17.6861 24.9599 10.8184 20.566 7.1261 16.9106Z" fill="#252525"/>
<path d="M21.4153 0.258789H13.7723C12.4799 0.258789 11.4092 1.32956 11.4092 2.62187V7.93879C11.4092 9.2311 12.443 10.2649 13.6984 10.3019V12.2957C13.6984 12.8865 14.363 13.2188 14.843 12.9234L18.8307 10.3388H21.4153C22.7076 10.3388 23.7784 9.26802 23.7784 7.97571V2.62187C23.7415 1.32956 22.7076 0.258789 21.4153 0.258789ZM22.2646 7.90187C22.2646 8.38187 21.8584 8.78802 21.3784 8.78802H18.6092C18.4615 8.78802 18.3138 8.82494 18.203 8.89879L15.1753 10.8557V9.48956C15.1753 9.0834 14.843 8.7511 14.4369 8.7511H13.7723C13.2923 8.7511 12.8861 8.34494 12.8861 7.86494V2.62187C12.8861 2.14187 13.2923 1.73571 13.7723 1.73571H21.4153C21.8953 1.73571 22.3015 2.14187 22.3015 2.62187V7.90187H22.2646Z" fill="#252525"/>
<path d="M15.0645 4.50488H14.7322C14.3261 4.50488 13.9938 4.83719 13.9938 5.24334C13.9938 5.6495 14.3261 5.98181 14.7322 5.98181H15.0645C15.4707 5.98181 15.803 5.6495 15.803 5.24334C15.803 4.83719 15.4707 4.50488 15.0645 4.50488Z" fill="#252525"/>
<path d="M17.76 4.50488H17.4277C17.0215 4.50488 16.6892 4.83719 16.6892 5.24334C16.6892 5.6495 17.0215 5.98181 17.4277 5.98181H17.76C18.1661 5.98181 18.4984 5.6495 18.4984 5.24334C18.4984 4.83719 18.1661 4.50488 17.76 4.50488Z" fill="#252525"/>
<path d="M20.4923 4.50488H20.16C19.7538 4.50488 19.4215 4.83719 19.4215 5.24334C19.4215 5.6495 19.7538 5.98181 20.16 5.98181H20.4923C20.8984 5.98181 21.2307 5.6495 21.2307 5.24334C21.2307 4.83719 20.8984 4.50488 20.4923 4.50488Z" fill="#252525"/>
</g>
<defs>
<clipPath id="clip0_486_2250">
<rect width="24" height="24" fill="white"/>
</clipPath>
</defs>
</svg>
