<svg width="106" height="106" viewBox="0 0 106 106" fill="none" xmlns="http://www.w3.org/2000/svg">
<g clip-path="url(#clip0_52_1445)">
<path d="M101.535 25.5947C101.503 23.2236 99.7221 21.2481 97.3702 20.9442C75.6651 18.1387 60.5953 5.9081 55.1971 0.86627C53.9605 -0.288757 52.0385 -0.288757 50.8019 0.86627C45.4037 5.9081 30.3341 18.1387 8.62877 20.9442C6.2771 21.2481 4.49643 23.2238 4.46351 25.5947C4.24923 41.1218 6.92842 94.4823 52.9997 106C99.0712 94.4823 101.75 41.1218 101.535 25.5947Z" fill="url(#paint0_linear_52_1445)"/>
<path d="M59.5575 103.978C59.8803 103.859 60.2008 103.737 60.5188 103.613C60.9295 103.453 61.3361 103.29 61.7388 103.122C62.0036 103.012 62.2667 102.9 62.528 102.787C62.9396 102.609 63.3474 102.427 63.7505 102.241C63.9021 102.172 64.0526 102.101 64.2029 102.03C64.5745 101.855 64.9422 101.676 65.3063 101.494C65.8349 101.231 66.356 100.961 66.8692 100.684C67.3597 100.42 67.8448 100.151 68.3216 99.8754C68.8692 99.5586 69.4074 99.2344 69.9374 98.9032C69.9494 98.8955 69.9619 98.8883 69.9743 98.8808C70.9821 98.2498 71.9566 97.5918 72.9015 96.9109C72.9725 96.8598 73.0448 96.8095 73.1154 96.7581C73.805 96.2563 74.4766 95.7406 75.1333 95.2139C75.1987 95.1615 75.2654 95.1097 75.3304 95.0572C75.7022 94.7561 76.0674 94.4501 76.4289 94.1415C76.7659 93.8537 77.1003 93.5638 77.4284 93.2697C77.5394 93.1703 77.6481 93.0692 77.758 92.9692C77.8729 92.8647 77.9887 92.7608 78.1025 92.6552C78.4408 92.3417 78.7731 92.0239 79.1017 91.7039C79.2054 91.6028 79.3102 91.5026 79.4128 91.401C79.7691 91.0486 80.1184 90.6919 80.4637 90.3321C80.5335 90.2594 80.6047 90.187 80.6741 90.1141C81.0805 89.6859 81.4788 89.2528 81.8699 88.8148C81.8755 88.8083 81.8813 88.8021 81.8871 88.7959C82.3821 88.2409 82.8634 87.6773 83.3342 87.1074C83.6172 86.7649 83.8976 86.4204 84.1721 86.0728C84.7141 85.3865 85.2391 84.6905 85.7484 83.9864C85.7542 83.9785 85.76 83.9706 85.7658 83.9626C85.8853 83.7971 86.0024 83.6309 86.1204 83.4646C86.1718 83.3922 86.2242 83.3199 86.2751 83.2473C86.3577 83.1297 86.4382 83.0113 86.52 82.893C86.6045 82.7709 86.6898 82.6489 86.7736 82.5264C87.0465 82.1256 87.3132 81.7221 87.5763 81.3167C87.9465 80.7461 88.3084 80.1716 88.6593 79.5925C89.0916 78.8799 89.5089 78.1609 89.9133 77.4369C89.9302 77.4061 89.948 77.3759 89.965 77.345C90.0549 77.1837 90.1427 77.0216 90.2311 76.8599C90.2805 76.7693 90.3311 76.6792 90.3801 76.5883C90.6319 76.1229 90.8772 75.6552 91.1178 75.1863C91.1385 75.1457 91.16 75.1051 91.1807 75.0648C91.2778 74.8745 91.3732 74.6838 91.4683 74.493C91.5008 74.4279 91.5339 74.3633 91.5664 74.2981C91.6188 74.1927 91.6695 74.087 91.7213 73.9814C92.0467 73.318 92.3626 72.6518 92.6672 71.9827C93.2053 70.801 93.7106 69.6116 94.1866 68.4189C94.3352 68.0464 94.482 67.6738 94.6247 67.3009C95.0013 66.3173 95.3571 65.332 95.6946 64.347C95.7155 64.2855 95.7375 64.2242 95.7584 64.1627C95.8223 63.9745 95.8849 63.7865 95.9476 63.5981C95.972 63.5248 95.9973 63.4514 96.0213 63.3781C96.2596 62.6563 96.4873 61.9353 96.7062 61.2154C96.7252 61.1527 96.7451 61.0897 96.7639 61.0266C96.879 60.6448 96.9906 60.2637 97.1003 59.8828C97.2229 59.4579 97.3428 59.0335 97.4589 58.6099C97.6326 57.9756 97.7989 57.3431 97.9585 56.7129C98.0537 56.3378 98.1473 55.963 98.2374 55.5898C98.2773 55.4248 98.3158 55.2604 98.355 55.0956C98.3765 55.0045 98.3986 54.9134 98.42 54.8223C98.5251 54.3728 98.6264 53.925 98.7249 53.4787C98.7384 53.4176 98.7525 53.3565 98.7657 53.2954C98.8473 52.9228 98.9257 52.5518 99.0026 52.1816C99.0458 51.9735 99.0887 51.7659 99.1303 51.5586C99.2146 51.1421 99.2963 50.727 99.375 50.3144C99.3769 50.3047 99.3789 50.2947 99.3806 50.2848C99.4539 49.8987 99.5245 49.5144 99.5932 49.1318C99.657 48.7766 99.7195 48.4225 99.7795 48.0706C99.8493 47.6609 99.916 47.2543 99.9804 46.8493C99.9926 46.7725 100.005 46.6951 100.017 46.6185C100.028 46.5504 100.038 46.4829 100.049 46.4147C100.075 46.2433 100.102 46.0717 100.128 45.9011C100.191 45.4848 100.251 45.0717 100.309 44.6616C100.317 44.602 100.326 44.5419 100.334 44.4825C100.355 44.3295 100.376 44.1776 100.396 44.0254C100.407 43.9445 100.419 43.8633 100.43 43.7828C100.439 43.714 100.447 43.6459 100.457 43.5776C100.539 42.9509 100.616 42.3317 100.687 41.7214C100.843 40.3875 100.971 39.0945 101.078 37.8503C101.08 37.8316 101.081 37.8124 101.083 37.7938C101.11 37.4824 101.134 37.1749 101.158 36.87C101.17 36.7168 101.182 36.564 101.193 36.4124C101.246 35.7069 101.291 35.0193 101.33 34.3506C101.344 34.0968 101.359 33.8446 101.372 33.5968C101.399 33.079 101.422 32.5749 101.442 32.0828C101.448 31.9381 101.453 31.7948 101.459 31.6524C101.487 30.8804 101.508 30.1421 101.522 29.4419C101.522 29.4293 101.522 29.4162 101.522 29.4034C101.537 28.62 101.544 27.8846 101.544 27.2004C101.544 27.1867 101.544 27.1722 101.544 27.1586C101.544 26.6019 101.541 26.0799 101.534 25.5947C101.501 23.2231 99.7203 21.2474 97.368 20.9433C96.7627 20.865 96.1642 20.7768 95.5694 20.6843C95.4375 20.6638 95.3054 20.6433 95.1741 20.6222C94.5942 20.5286 94.0185 20.4296 93.4487 20.3232C93.3632 20.3073 93.2792 20.2899 93.1941 20.2737C92.6763 20.175 92.1631 20.0711 91.6536 19.9622C91.544 19.939 91.4341 19.9162 91.325 19.8924C90.77 19.7713 90.2201 19.644 89.6754 19.5117C89.5609 19.4837 89.4474 19.4549 89.3334 19.4266C88.8297 19.3015 88.3303 19.1725 87.8359 19.0384C87.7717 19.021 87.7069 19.0044 87.6427 18.987C87.1059 18.8398 86.5757 18.6864 86.0494 18.5293C85.93 18.4935 85.8109 18.4577 85.6919 18.4214C85.1652 18.2612 84.6422 18.0978 84.1265 17.9285C84.0984 17.9194 84.071 17.9097 84.0429 17.9003C83.5466 17.7366 83.0566 17.5681 82.5707 17.3962C82.4605 17.3573 82.35 17.3188 82.2403 17.2792C81.7457 17.102 81.2556 16.9213 80.772 16.7368C80.6896 16.7054 80.6087 16.6733 80.5265 16.6416C80.0888 16.4726 79.6557 16.301 79.2271 16.1265C79.1425 16.0919 79.0572 16.0582 78.9729 16.0236C78.5029 15.8302 78.0392 15.634 77.5808 15.4348C77.4808 15.3913 77.3819 15.3476 77.2825 15.3042C76.8498 15.1139 76.421 14.9222 75.9987 14.7274C75.9602 14.7098 75.9213 14.6924 75.883 14.6746C75.4333 14.4663 74.9909 14.2551 74.553 14.0423C74.4538 13.9941 74.3551 13.9458 74.2563 13.8976C73.8234 13.6852 73.3949 13.4711 72.974 13.255C72.9321 13.2336 72.8916 13.2117 72.85 13.1904C72.457 12.9877 72.0699 12.7834 71.6875 12.5782C71.6011 12.5318 71.5148 12.4858 71.4289 12.4395C71.0264 12.2217 70.63 12.0031 70.2397 11.7834C70.166 11.7418 70.0933 11.7 70.02 11.6586C69.6677 11.4588 69.3203 11.2584 68.9781 11.0575C68.917 11.0215 68.8549 10.9859 68.794 10.9499C68.4178 10.7277 68.0487 10.5054 67.6847 10.2826C67.6032 10.2327 67.5226 10.1828 67.4417 10.1329C67.085 9.91307 66.7326 9.693 66.3879 9.47334C66.3763 9.46588 66.3643 9.45843 66.3523 9.45098C65.9974 9.22448 65.6513 8.99841 65.3095 8.77295C65.2329 8.72223 65.1563 8.67171 65.0803 8.62119C64.7478 8.40029 64.4203 8.1798 64.1006 7.96077C64.0577 7.93137 64.0163 7.90238 63.9739 7.87298C63.6816 7.67175 63.3955 7.47176 63.1143 7.27301C63.0522 7.22891 62.9895 7.18481 62.9276 7.14113C62.6255 6.92623 62.3301 6.71299 62.0411 6.50161C61.9816 6.45793 61.9235 6.41486 61.8647 6.3718C61.6021 6.17843 61.3446 5.98693 61.0929 5.79708C61.0552 5.76851 61.0165 5.73994 60.979 5.71137C60.7043 5.5033 60.4374 5.29793 60.1761 5.09483C60.1163 5.04825 60.0575 5.00229 59.9983 4.95591C59.7378 4.7522 59.4817 4.55034 59.2352 4.35262C59.23 4.34848 59.2252 4.34455 59.22 4.34041C58.9751 4.14394 58.7397 3.95181 58.5089 3.76196C58.4571 3.71932 58.4054 3.67687 58.3542 3.63485C58.1284 3.4479 57.9083 3.26426 57.6961 3.08497C57.6621 3.0562 57.6303 3.02887 57.5967 3.0003C57.4052 2.83778 57.2199 2.67857 57.04 2.52268C57.0027 2.49038 56.9649 2.45767 56.928 2.42558C56.733 2.25602 56.5456 2.09102 56.3647 1.92995C56.326 1.89537 56.2889 1.86225 56.2508 1.82809C56.0856 1.68027 55.9254 1.53596 55.7722 1.39663C55.7539 1.38007 55.7345 1.36247 55.7165 1.34612C55.5512 1.19519 55.3953 1.0511 55.2448 0.910938C55.2295 0.896445 55.2115 0.880297 55.1962 0.866012C54.5794 0.288602 53.7896 0 53 0V106C54.0219 105.745 55.0215 105.468 56.0011 105.172C57.2189 104.804 58.4035 104.405 59.5575 103.978Z" fill="url(#paint1_linear_52_1445)"/>
<path d="M95.78 28.8445C95.751 26.7547 94.1817 25.0134 92.1089 24.7455C72.9776 22.2727 59.6949 11.4926 54.9371 7.04864C53.847 6.03066 52.1529 6.03066 51.0631 7.04864C46.3051 11.4926 33.0226 22.2727 13.8913 24.7455C11.8185 25.0134 10.249 26.7547 10.2202 28.8445C10.0303 42.5303 12.3917 89.563 52.9997 99.715C93.6078 89.563 95.9692 42.5303 95.78 28.8445Z" fill="url(#paint2_linear_52_1445)"/>
<path d="M53.0004 96.116L52.5215 95.9964C43.9078 93.8428 36.5402 89.6894 30.6234 83.6511C25.7118 78.6385 21.7652 72.2929 18.8928 64.791C13.9013 51.7538 13.3127 38.4818 13.4061 31.7308C13.4446 28.935 15.5723 26.5556 18.3548 26.196C34.575 24.0994 45.8535 14.9745 49.9496 11.1485C51.6601 9.55068 54.3403 9.55088 56.051 11.1483C60.1471 14.9745 71.4256 24.0994 87.6456 26.196C90.4286 26.5558 92.5562 28.9354 92.5945 31.7308C92.7707 44.4688 90.4712 86.7483 53.4791 95.9966L53.0004 96.116ZM53.0004 13.8932C52.8723 13.8932 52.7441 13.9397 52.6441 14.0331C48.2687 18.1197 36.2185 27.8671 18.861 30.1105C18.0134 30.2201 17.3652 30.9403 17.3534 31.7852C17.1881 43.7332 19.2827 83.2484 53.0004 92.0441C86.7181 83.2484 88.8129 43.7332 88.6477 31.7852C88.6359 30.9401 87.9879 30.2201 87.1399 30.1105C69.7826 27.8671 57.7321 18.1197 53.3569 14.0331C53.2567 13.9397 53.1288 13.8932 53.0004 13.8932Z" fill="white"/>
<path d="M95.7801 28.8445C95.7511 26.7548 94.1818 25.0134 92.109 24.7455C72.9777 22.2727 59.695 11.4926 54.9372 7.04869C54.3923 6.5396 53.6962 6.28516 53 6.28516V99.7153C93.6079 89.5631 95.9693 42.5303 95.7801 28.8445Z" fill="url(#paint3_linear_52_1445)"/>
<path d="M98.1044 56.13C94.6896 69.9349 87.9949 84.9538 75.0277 95.296L34.8472 55.1158C33.3777 53.6463 33.3777 51.2623 34.8472 49.7909C36.3168 48.3194 38.7028 48.3194 40.1721 49.7909L48.2552 57.8741C49.2508 58.8676 50.8719 58.8676 51.8634 57.8741L73.1944 36.5451C74.666 35.0735 77.0499 35.0735 78.5192 36.5451H78.5213L98.1044 56.13Z" fill="url(#paint4_linear_52_1445)"/>
<path d="M78.5206 36.5459C79.9913 38.0166 79.9911 40.4008 78.5204 41.8713L57.1895 63.1997C53.2578 67.1316 46.8597 67.1316 42.9307 63.1997L34.8471 55.1162C33.3768 53.6458 33.3764 51.2621 34.8465 49.7915C36.317 48.3204 38.7016 48.3199 40.1724 49.7909L48.2545 57.873C49.2493 58.8678 50.8703 58.8678 51.8626 57.873L73.1937 36.5442C74.6642 35.0737 77.0484 35.0739 78.5187 36.5444L78.5206 36.5459Z" fill="url(#paint5_linear_52_1445)"/>
</g>
<defs>
<linearGradient id="paint0_linear_52_1445" x1="35.7583" y1="29.2495" x2="118.661" y2="112.152" gradientUnits="userSpaceOnUse">
<stop stop-color="#62E1FB"/>
<stop offset="1" stop-color="#00A2F3"/>
</linearGradient>
<linearGradient id="paint1_linear_52_1445" x1="92.9913" y1="53.0012" x2="37.2116" y2="53.0012" gradientUnits="userSpaceOnUse">
<stop stop-color="#00A2F3" stop-opacity="0"/>
<stop offset="1" stop-color="#0075CD"/>
</linearGradient>
<linearGradient id="paint2_linear_52_1445" x1="36.453" y1="30.7163" x2="81.7743" y2="76.0376" gradientUnits="userSpaceOnUse">
<stop stop-color="#A7F3CE"/>
<stop offset="1" stop-color="#61DB99"/>
</linearGradient>
<linearGradient id="paint3_linear_52_1445" x1="88.9694" y1="53.0013" x2="33.2271" y2="53.0013" gradientUnits="userSpaceOnUse">
<stop stop-color="#61DB99" stop-opacity="0"/>
<stop offset="1" stop-color="#009E74"/>
</linearGradient>
<linearGradient id="paint4_linear_52_1445" x1="83.911" y1="73.0596" x2="62.6782" y2="51.8268" gradientUnits="userSpaceOnUse">
<stop stop-color="#61DB99" stop-opacity="0"/>
<stop offset="1" stop-color="#009E74"/>
</linearGradient>
<linearGradient id="paint5_linear_52_1445" x1="56.6826" y1="45.199" x2="56.6826" y2="69.8092" gradientUnits="userSpaceOnUse">
<stop stop-color="#FFF465"/>
<stop offset="1" stop-color="#FFE600"/>
</linearGradient>
<clipPath id="clip0_52_1445">
<rect width="106" height="106" fill="white"/>
</clipPath>
</defs>
</svg>
