<svg width="28" height="28" viewBox="0 0 28 28" fill="none" xmlns="http://www.w3.org/2000/svg">
<path d="M27.5297 12.5173L25.1643 10.362V3.21525C25.1643 2.76052 24.7957 2.39182 24.3409 2.39182H18.6471C18.1924 2.39182 17.8237 2.76046 17.8237 3.21525V3.6732L14.967 1.07024C14.4156 0.567715 13.5841 0.56777 13.0329 1.07018L0.470195 12.5173C0.0285385 12.9198 -0.117422 13.54 0.0983745 14.0972C0.314226 14.6544 0.839773 15.0144 1.43734 15.0144H3.44377V26.4835C3.44377 26.9382 3.81242 27.3069 4.2672 27.3069H11.1531C11.6078 27.3069 11.9765 26.9383 11.9765 26.4835V19.5198H16.0234V26.4836C16.0234 26.9383 16.3921 27.307 16.8469 27.307H23.7325C24.1872 27.307 24.5559 26.9384 24.5558 26.4836V15.0145H26.5627C27.1602 15.0145 27.6858 14.6544 27.9017 14.0972C28.1174 13.54 27.9715 12.9198 27.5297 12.5173ZM23.7325 13.3676C23.2777 13.3676 22.909 13.7362 22.909 14.191V25.6601H17.6703V18.6964C17.6703 18.2417 17.3016 17.873 16.8469 17.873H11.1531C10.6983 17.873 10.3296 18.2416 10.3296 18.6964V25.6601H5.09058V14.191C5.09058 13.7363 4.72193 13.3676 4.26715 13.3676H1.98214L14 2.41697L18.0926 6.14617C18.3337 6.36579 18.6817 6.42239 18.9799 6.29076C19.2782 6.15896 19.4706 5.86354 19.4706 5.5375V4.03868H23.5176V10.7256C23.5176 10.9574 23.6151 11.1782 23.7864 11.3343L26.0178 13.3676H23.7325Z" fill="#204745"/>
</svg>
