<svg width="26" height="26" viewBox="0 0 26 26" fill="none" xmlns="http://www.w3.org/2000/svg">
<path d="M2.1111 25.436H4.05554C4.91307 25.436 5.6111 24.738 5.6111 23.8804V21.1893C5.6111 20.3318 4.91307 19.6338 4.05554 19.6338H2.1111C1.25357 19.6338 0.555542 20.3318 0.555542 21.1893V23.8804C0.555542 24.738 1.25357 25.436 2.1111 25.436ZM2.1111 21.1893H4.05554L4.05706 23.8804H2.1111V21.1893Z" fill="#204745"/>
<path d="M8.72218 25.4367H10.6666C11.5242 25.4367 12.2222 24.7387 12.2222 23.8812V14.2372C12.2222 13.3797 11.5242 12.6816 10.6666 12.6816H8.72218C7.86465 12.6816 7.16663 13.3797 7.16663 14.2372V23.8812C7.16663 24.7387 7.86465 25.4367 8.72218 25.4367ZM8.72218 14.2372H10.6666L10.6681 23.8812H8.72218V14.2372Z" fill="#204745"/>
<path d="M15.3333 15.3877C14.4757 15.3877 13.7777 16.0857 13.7777 16.9433V23.881C13.7777 24.7385 14.4757 25.4365 15.3333 25.4365H17.2777C18.1352 25.4365 18.8333 24.7385 18.8333 23.881V16.9433C18.8333 16.0857 18.1352 15.3877 17.2777 15.3877H15.3333ZM15.3333 23.881V16.9433H17.2777L17.2792 23.881H15.3333Z" fill="#204745"/>
<path d="M25.4445 23.8806V8.77626C25.4445 7.91873 24.7464 7.2207 23.8889 7.2207H21.9445C21.0869 7.2207 20.3889 7.91873 20.3889 8.77626V23.8806C20.3889 24.7382 21.0869 25.4362 21.9445 25.4362H23.8889C24.7464 25.4362 25.4445 24.7382 25.4445 23.8806ZM21.9445 8.77626H23.8889L23.8904 23.8806H21.9445V8.77626Z" fill="#204745"/>
<path d="M3.62566 12.0175L9.4947 6.14844C9.7256 5.91829 10.0795 5.85449 10.3765 5.99501L15.009 8.17415C15.8947 8.59418 16.958 8.40809 17.6522 7.71311L23.4749 1.89117C23.7788 1.58735 23.7788 1.09516 23.4749 0.791341C23.1711 0.487522 22.6789 0.487522 22.3751 0.791341L16.5524 6.61328C16.3208 6.84494 15.9661 6.90723 15.6713 6.76671L11.0389 4.58681C10.154 4.17057 9.0891 4.35438 8.39487 5.04861L2.52584 10.9176C2.22202 11.2215 2.22202 11.7136 2.52584 12.0175C2.82965 12.3213 3.32184 12.3213 3.62566 12.0175Z" fill="#204745"/>
</svg>
