<svg width="80" height="80" viewBox="0 0 80 80" fill="none" xmlns="http://www.w3.org/2000/svg">
<g clip-path="url(#clip0_276_1731)">
<path d="M28.0951 62.7192L16.16 69.2294C15.4596 69.6113 14.8302 70.0807 14.2445 70.5924C21.203 76.4596 30.1857 79.9992 40 79.9992C49.7419 79.9992 58.6672 76.5124 65.606 70.7252C64.966 70.1849 64.2717 69.6988 63.5019 69.3154L50.7215 62.926C49.0702 62.1003 48.0272 60.4128 48.0272 58.5667V53.5524C48.3864 53.1433 48.797 52.6181 49.2362 51.9977C50.9781 49.5373 52.2959 46.8309 53.2091 43.9916C54.8483 43.486 56.0559 41.972 56.0559 40.1728V34.8203C56.0559 33.643 55.5321 32.5909 54.7185 31.8543V24.1169C54.7185 24.1169 56.3079 12.0762 40.0015 12.0762C23.6951 12.0762 25.2845 24.1169 25.2845 24.1169V31.8543C24.4694 32.5909 23.9472 33.643 23.9472 34.8203V40.1728C23.9472 41.5826 24.6883 42.8233 25.7977 43.5403C27.1351 49.3622 30.637 53.5524 30.637 53.5524V58.443C30.6355 60.2241 29.6604 61.8648 28.0951 62.7192Z" fill="#E7ECED"/>
<path d="M40.6837 0.00595647C18.5961 -0.371402 0.383319 17.2286 0.00596041 39.3161C-0.208379 51.8399 5.37351 63.0958 14.2611 70.581C14.8422 70.0739 15.4656 69.609 16.1584 69.2316L28.0935 62.7214C29.6588 61.8671 30.6339 60.2263 30.6339 58.4422V53.5516C30.6339 53.5516 27.1305 49.3614 25.7946 43.5395C24.6867 42.8226 23.9441 41.5833 23.9441 40.172V34.8195C23.9441 33.6422 24.4678 32.5901 25.2814 31.8535V24.1161C25.2814 24.1161 23.692 12.0754 39.9984 12.0754C56.3048 12.0754 54.7154 24.1161 54.7154 24.1161V31.8535C55.5305 32.5901 56.0528 33.6422 56.0528 34.8195V40.172C56.0528 41.9712 54.8452 43.4852 53.206 43.9909C52.2928 46.8301 50.975 49.5365 49.2331 51.9969C48.7939 52.6173 48.3833 53.1426 48.0241 53.5516V58.566C48.0241 60.412 49.0671 62.101 50.7184 62.9252L63.4988 69.3146C64.2656 69.698 64.9584 70.1826 65.5969 70.7214C74.2158 63.5335 79.7841 52.7863 79.9909 40.6837C80.3712 18.5961 62.7728 0.383315 40.6837 0.00595647Z" fill="#A9A9A9"/>
</g>
<defs>
<clipPath id="clip0_276_1731">
<rect width="80" height="80" fill="white"/>
</clipPath>
</defs>
</svg>
