<svg width="100" height="16" viewBox="0 0 100 16" fill="none" xmlns="http://www.w3.org/2000/svg">
<rect x="0.166667" y="0.166667" width="23" height="15.6667" rx="1.16667" fill="white" stroke="#D9D9D9" stroke-width="0.333333"/>
<path fill-rule="evenodd" clip-rule="evenodd" d="M7.08351 10.8392H5.66996L4.60997 6.79526C4.55966 6.60924 4.45283 6.44479 4.29569 6.36728C3.90354 6.1725 3.47141 6.01748 3 5.9393V5.78361H5.27711C5.59139 5.78361 5.8271 6.01748 5.86638 6.2891L6.41636 9.20611L7.82922 5.78361H9.20348L7.08351 10.8392ZM9.98919 10.8392H8.65422L9.75349 5.78361H11.0885L9.98919 10.8392ZM12.8156 7.18413C12.8549 6.91184 13.0906 6.75615 13.3656 6.75615C13.7977 6.71706 14.2684 6.79524 14.6613 6.98935L14.897 5.90087C14.5041 5.74517 14.072 5.66699 13.6798 5.66699C12.3841 5.66699 11.4413 6.36726 11.4413 7.33915C11.4413 8.07851 12.1092 8.46673 12.5806 8.7006C13.0906 8.9338 13.287 9.08949 13.2477 9.32269C13.2477 9.67249 12.8549 9.82818 12.4627 9.82818C11.9913 9.82818 11.5199 9.71158 11.0884 9.5168L10.8527 10.606C11.3242 10.8001 11.8342 10.8783 12.3056 10.8783C13.7584 10.9167 14.6613 10.2171 14.6613 9.167C14.6613 7.84464 12.8156 7.76713 12.8156 7.18413ZM19.3333 10.8392L18.2733 5.78361H17.1348C16.8991 5.78361 16.6634 5.9393 16.5848 6.1725L14.6219 10.8392H15.9962L16.2705 10.1005H17.9591L18.1162 10.8392H19.3333ZM17.3312 7.14502L17.7234 9.05038H16.6241L17.3312 7.14502Z" fill="#172B85"/>
<rect x="25.4999" y="0.166667" width="23" height="15.6667" rx="1.16667" fill="white" stroke="#D9D9D9" stroke-width="0.333333"/>
<path d="M40.1177 3.33301C42.6298 3.33318 44.6663 5.39325 44.6665 7.93457C44.6665 10.4761 42.63 12.5369 40.1177 12.5371C38.9912 12.5371 37.961 12.1216 37.1665 11.4355C36.372 12.1216 35.3418 12.5371 34.2153 12.5371C31.7031 12.5369 29.6665 10.4761 29.6665 7.93457C29.6667 5.39328 31.7032 3.3332 34.2153 3.33301C35.3416 3.33301 36.372 3.74776 37.1665 4.43359C37.961 3.74774 38.9914 3.33301 40.1177 3.33301Z" fill="#ED0006"/>
<path d="M40.1177 3.33301C42.6298 3.33318 44.6663 5.39325 44.6665 7.93457C44.6665 10.4761 42.63 12.5369 40.1177 12.5371C38.9912 12.5371 37.961 12.1216 37.1665 11.4355C38.1441 10.5915 38.7651 9.33664 38.7651 7.93457C38.765 6.53248 38.1442 5.2776 37.1665 4.43359C37.961 3.74774 38.9914 3.33301 40.1177 3.33301Z" fill="#F9A000"/>
<path d="M37.1658 4.43359C38.1437 5.2776 38.7643 6.53231 38.7644 7.93457C38.7644 9.3368 38.1435 10.5915 37.1658 11.4355C36.1884 10.5915 35.5681 9.33644 35.5681 7.93457C35.5682 6.53267 36.1883 5.2776 37.1658 4.43359Z" fill="#FF5E00"/>
<rect x="50.8334" y="0.166667" width="23" height="15.6667" rx="1.16667" fill="#1F72CD" stroke="#D9D9D9" stroke-width="0.333333"/>
<path d="M57.5693 6.23535V5.66699H60.1025L60.6582 6.91406L61.2012 5.66699H67.5234L68.1641 6.40332L68.8525 5.66699H71.791L69.6641 8.0957L71.791 10.5039L68.8057 10.498L68.1445 9.74805L67.4375 10.498H61.626V9.89746L61.377 10.498H59.9316L59.6826 9.91016V10.498H56.8877L56.5732 9.72754H55.8535L55.5391 10.498H53L55.1211 5.66699H57.2871L57.5693 6.23535ZM54.125 9.81934H55.0293L55.3486 9.04297H57.0781L57.3984 9.81934H59.0869V7.10352L60.29 9.81934H61.0244L62.2217 7.10352L62.2275 9.81934H63.0488V6.35352H61.7002L60.6982 8.70215L59.6123 6.35352H58.2559V9.62891L56.8496 6.35352H55.6123C55.5971 6.38905 54.125 9.81934 54.125 9.81934ZM63.7998 9.81738H67.085L68.1445 8.66992L69.165 9.81738H70.2324L68.6816 8.0957L70.2324 6.35352H69.2119L68.1582 7.48828L67.1367 6.35352H63.7998V9.81738ZM67.6152 8.08203L66.666 9.09961H64.624V8.40918H66.4443V7.7041H64.624V7.07031H66.7061L67.6152 8.08203ZM56.7832 8.32422H55.6445L56.2139 6.93945L56.7832 8.32422Z" fill="white"/>
<rect x="76.1667" y="0.166667" width="23" height="15.6667" rx="1.16667" fill="white" stroke="#D9D9D9" stroke-width="0.333333"/>
<path d="M86 15.3333L98.6667 11.5V14.6667C98.6667 15.0349 98.3682 15.3333 98 15.3333H86Z" fill="#FD6020"/>
<path d="M86.1228 6.07355C86.3667 6.07355 86.6462 6.10997 86.8552 6.25324V6.96906C86.681 6.75415 86.4015 6.61066 86.1228 6.61066C85.5656 6.64664 85.1126 7.14821 85.1472 7.72101V7.79328C85.1473 8.36624 85.6006 8.79619 86.158 8.79621C86.4367 8.79621 86.681 8.65272 86.8552 8.43781V9.15461C86.6114 9.26202 86.3672 9.33326 86.0886 9.33332C85.2176 9.33332 84.5204 8.58119 84.5203 7.68586C84.5203 6.75471 85.2171 6.00215 86.1228 6.07355ZM91.5935 8.22297L92.4294 6.07355H93.0574L91.7673 9.33332H91.4539L90.1648 6.07355H90.7917L91.5935 8.22297ZM83.3357 6.00226C83.6493 6.00226 83.9629 6.14575 84.2068 6.36066L83.8933 6.79035C83.7539 6.64708 83.5792 6.53937 83.405 6.53937C83.1961 6.50381 83.0219 6.68298 82.9871 6.89777C82.9871 7.07671 83.092 7.14813 83.4402 7.29133C84.137 7.57787 84.3116 7.79315 84.3464 8.22297V8.33039C84.3116 8.90345 83.858 9.333 83.3005 9.29718C82.8826 9.29708 82.4647 9.08253 82.2556 8.68879L82.6384 8.29426C82.743 8.54498 82.9876 8.72394 83.2664 8.72394H83.3005C83.5095 8.72394 83.7183 8.50965 83.7185 8.2591C83.7185 8.11583 83.6492 8.00749 83.5447 7.93586C83.4054 7.86427 83.266 7.79295 83.1267 7.75715C82.5693 7.57808 82.3953 7.32748 82.3953 6.89777V6.86164C82.4302 6.36027 82.8479 5.96645 83.3357 6.00226ZM79.7117 6.07355C80.5477 6.10937 81.21 6.82557 81.1755 7.68488C81.1755 8.15046 80.9663 8.58128 80.6179 8.90363C80.3044 9.15423 79.921 9.29686 79.5378 9.26105H78.6667V6.07355H79.7117ZM82.0115 9.26203H81.4197V6.07355H82.0115V9.26203ZM95.0085 6.61066H93.9285V7.32746H94.9734V7.86457H93.9285V8.72394H95.0085V9.26203H93.3357V6.07355H95.0085V6.61066ZM96.2625 6.07355C96.9592 6.07356 97.3424 6.39644 97.3425 7.00519C97.3772 7.47067 97.0633 7.86424 96.6453 7.93586L97.5867 9.26105H96.8552L96.0535 7.97199H95.9841V9.26105H95.3914V6.07355H96.2625ZM79.4333 6.61066H79.2595V8.72394H79.4333C79.7121 8.75974 80.0261 8.65204 80.2351 8.47297C80.4438 8.25815 80.5486 7.97175 80.5486 7.64972C80.5485 7.36336 80.444 7.07646 80.2351 6.86164C80.0261 6.68263 79.712 6.57491 79.4333 6.61066ZM95.9841 7.5423H96.158C96.5412 7.54228 96.7156 7.36269 96.7156 7.04035C96.7153 6.75415 96.5409 6.57552 96.158 6.57551H95.9841V7.5423Z" fill="black"/>
<path fill-rule="evenodd" clip-rule="evenodd" d="M88.6318 6C87.7608 6 87.0291 6.71636 87.0291 7.64763C87.0291 8.54308 87.7259 9.29525 88.6318 9.33107C89.5378 9.36689 90.2346 8.61471 90.2695 7.68344C90.2346 6.75218 89.5378 6 88.6318 6V6Z" fill="#FD6020"/>
</svg>
