<svg width="25" height="25" viewBox="0 0 25 25" fill="none" xmlns="http://www.w3.org/2000/svg">
<g clip-path="url(#clip0_136_212)">
<path d="M23.5938 10.4136L13.8044 10.4131C13.3721 10.4131 13.0217 10.7634 13.0217 11.1957V14.323C13.0217 14.7552 13.3721 15.1056 13.8044 15.1056H19.3171C18.7135 16.6722 17.5868 17.9842 16.1493 18.8178L18.5 22.887C22.2707 20.7062 24.5 16.8799 24.5 12.5965C24.5 11.9866 24.455 11.5506 24.3651 11.0597C24.2968 10.6867 23.9729 10.4136 23.5938 10.4136Z" fill="#167EE6"/>
<path d="M12.5 19.8047C9.80218 19.8047 7.44699 18.3306 6.18207 16.1494L2.11304 18.4948C4.18374 22.0836 8.06283 24.5003 12.5 24.5003C14.6768 24.5003 16.7307 23.9143 18.5 22.8929V22.8873L16.1494 18.8181C15.0742 19.4417 13.8299 19.8047 12.5 19.8047Z" fill="#12B347"/>
<path d="M18.5 22.8922V22.8866L16.1494 18.8174C15.0741 19.441 13.83 19.804 12.5 19.804V24.4996C14.6767 24.4996 16.7308 23.9135 18.5 22.8922Z" fill="#0F993E"/>
<path d="M5.19566 12.5003C5.19566 11.1705 5.55856 9.92637 6.18205 8.8512L2.11302 6.50586C1.08603 8.26962 0.5 10.318 0.5 12.5003C0.5 14.6826 1.08603 16.7309 2.11302 18.4947L6.18205 16.1494C5.55856 15.0742 5.19566 13.8301 5.19566 12.5003Z" fill="#FFD500"/>
<path d="M12.5 5.19566C14.2593 5.19566 15.8753 5.82078 17.1375 6.86061C17.4488 7.11711 17.9014 7.09859 18.1867 6.81336L20.4024 4.59758C20.7261 4.27395 20.703 3.74422 20.3573 3.44431C18.2425 1.60967 15.491 0.5 12.5 0.5C8.06283 0.5 4.18374 2.91673 2.11304 6.50558L6.18207 8.85092C7.44699 6.66969 9.80218 5.19566 12.5 5.19566Z" fill="#FF4B26"/>
<path d="M17.1374 6.86061C17.4488 7.11711 17.9015 7.09859 18.1866 6.81336L20.4024 4.59758C20.726 4.27395 20.7029 3.74422 20.3573 3.44431C18.2425 1.60963 15.491 0.5 12.5 0.5V5.19566C14.2592 5.19566 15.8752 5.82078 17.1374 6.86061Z" fill="#D93F21"/>
</g>
<defs>
<clipPath id="clip0_136_212">
<rect width="24" height="24" fill="white" transform="translate(0.5 0.5)"/>
</clipPath>
</defs>
</svg>
