<svg width="32" height="32" viewBox="0 0 32 32" fill="none" xmlns="http://www.w3.org/2000/svg">
<path fill-rule="evenodd" clip-rule="evenodd" d="M16.806 5.68957L13.9076 0C10.3106 0.490629 6.96813 2.19439 4.45703 4.81435L10.3134 16.3094C11.6595 12.1653 13.9259 8.57818 16.806 5.69098V5.68957ZM26.035 13.4618L30.5511 8.94585C28.9731 5.67689 26.3206 3.02441 23.0517 1.44507L13.9291 10.5676C18.2868 10.5676 22.3985 11.6153 26.035 13.4618ZM0.255015 13.0646L6.56245 12.065V12.0664C8.42032 15.6973 11.1294 18.9606 14.6557 21.5226L1.91353 23.5403C0.197045 20.342 -0.389725 16.6361 0.255015 13.0646ZM9.46168 23.7778L8.46205 30.0853C11.6603 31.8018 15.3647 32.3899 18.9377 31.7453L20.9553 19.0031C17.429 21.5651 13.4885 23.133 9.46027 23.7778H9.46168ZM27.1842 27.5399L21.4946 24.6399H21.4932C22.1252 20.6117 21.851 16.3771 20.5048 12.2329L32 18.0892C31.5094 21.6863 29.8056 25.0288 27.1842 27.5399Z" fill="#1E3A8A"/>
</svg>
