<svg width="18" height="18" viewBox="0 0 18 18" fill="none" xmlns="http://www.w3.org/2000/svg">
<path d="M9.00128 0.845215C11.2655 0.845215 11.548 0.853555 12.4363 0.895215C13.3238 0.936885 13.928 1.07605 14.4597 1.28271C15.0097 1.49438 15.473 1.78105 15.9363 2.24355C16.3601 2.66013 16.688 3.16404 16.8972 3.72021C17.103 4.25105 17.243 4.85606 17.2847 5.74356C17.3238 6.63189 17.3347 6.91438 17.3347 9.17852C17.3347 11.4427 17.3263 11.7252 17.2847 12.6135C17.243 13.501 17.103 14.1052 16.8972 14.6369C16.6886 15.1933 16.3606 15.6974 15.9363 16.1135C15.5196 16.5371 15.0158 16.865 14.4597 17.0744C13.9288 17.2802 13.3238 17.4202 12.4363 17.4619C11.548 17.501 11.2655 17.5119 9.00128 17.5119C6.73714 17.5119 6.45464 17.5035 5.56631 17.4619C4.67881 17.4202 4.07464 17.2802 3.54297 17.0744C2.98658 16.8656 2.48258 16.5376 2.06631 16.1135C1.64248 15.697 1.31458 15.1931 1.10547 14.6369C0.898809 14.106 0.759639 13.501 0.717969 12.6135C0.678809 11.7252 0.667969 11.4427 0.667969 9.17852C0.667969 6.91438 0.676309 6.63189 0.717969 5.74356C0.759639 4.85522 0.898809 4.25188 1.10547 3.72021C1.314 3.1637 1.64198 2.65965 2.06631 2.24355C2.4827 1.81957 2.98666 1.49165 3.54297 1.28271C4.07464 1.07605 4.67797 0.936885 5.56631 0.895215C6.45464 0.856055 6.73714 0.845215 9.00128 0.845215ZM9.00128 5.01188C7.89624 5.01188 6.83643 5.45087 6.05503 6.23228C5.27363 7.01368 4.83464 8.07348 4.83464 9.17852C4.83464 10.2836 5.27363 11.3434 6.05503 12.1248C6.83643 12.9062 7.89624 13.3452 9.00128 13.3452C10.1064 13.3452 11.1662 12.9062 11.9476 12.1248C12.729 11.3434 13.168 10.2836 13.168 9.17852C13.168 8.07348 12.729 7.01368 11.9476 6.23228C11.1662 5.45087 10.1064 5.01188 9.00128 5.01188ZM14.418 4.80355C14.418 4.52728 14.3082 4.26233 14.1129 4.06698C13.9175 3.87163 13.6526 3.76188 13.3763 3.76188C13.1001 3.76188 12.8351 3.87163 12.6398 4.06698C12.4444 4.26233 12.3347 4.52728 12.3347 4.80355C12.3347 5.07981 12.4444 5.34476 12.6398 5.54012C12.8351 5.73548 13.1001 5.84521 13.3763 5.84521C13.6526 5.84521 13.9175 5.73548 14.1129 5.54012C14.3082 5.34476 14.418 5.07981 14.418 4.80355ZM9.00128 6.67855C9.66438 6.67855 10.3003 6.94194 10.7691 7.41078C11.2379 7.87962 11.5013 8.5155 11.5013 9.17852C11.5013 9.84163 11.2379 10.4775 10.7691 10.9463C10.3003 11.4151 9.66438 11.6785 9.00128 11.6785C8.33826 11.6785 7.70238 11.4151 7.23354 10.9463C6.7647 10.4775 6.50131 9.84163 6.50131 9.17852C6.50131 8.5155 6.7647 7.87962 7.23354 7.41078C7.70238 6.94194 8.33826 6.67855 9.00128 6.67855Z" fill="#204745"/>
</svg>
