<svg width="17" height="16" viewBox="0 0 17 16" fill="none" xmlns="http://www.w3.org/2000/svg">
<path d="M3.78255 2.34475C3.78233 2.78678 3.60652 3.21062 3.2938 3.52302C2.98109 3.83543 2.55708 4.01081 2.11505 4.01059C1.67302 4.01037 1.24919 3.83456 0.936779 3.52184C0.624379 3.20913 0.448989 2.78511 0.449219 2.34309C0.449439 1.90106 0.625239 1.47722 0.937959 1.16482C1.25068 0.852416 1.67469 0.677026 2.11672 0.677246C2.55874 0.677466 2.98258 0.853276 3.29498 1.166C3.60739 1.47872 3.78277 1.90273 3.78255 2.34475ZM3.83255 5.24475H0.499219V15.6781H3.83255V5.24475ZM9.09922 5.24475H5.78255V15.6781H9.06592V10.2031C9.06592 7.15309 13.0409 6.86975 13.0409 10.2031V15.6781H16.3325V9.06973C16.3325 3.92809 10.4492 4.11975 9.06592 6.64475L9.09922 5.24475Z" fill="#204745"/>
</svg>
