<svg width="24" height="20" viewBox="0 0 24 20" fill="none" xmlns="http://www.w3.org/2000/svg">
<path d="M22.8029 18.7154H6.75419C6.09274 18.7154 5.55664 18.1793 5.55664 17.5179C5.55664 16.8564 6.09274 16.3203 6.75419 16.3203H22.8025C23.4639 16.3203 24 16.8564 24 17.5179C24 18.1793 23.4643 18.7154 22.8029 18.7154Z" fill="#333333"/>
<path d="M22.8029 11.1978H6.75419C6.09274 11.1978 5.55664 10.6617 5.55664 10.0003C5.55664 9.33884 6.09274 8.80273 6.75419 8.80273H22.8025C23.4639 8.80273 24 9.33884 24 10.0003C24.0004 10.6617 23.4643 11.1978 22.8029 11.1978Z" fill="#333333"/>
<path d="M22.8029 3.68122H6.75419C6.09274 3.68122 5.55664 3.14512 5.55664 2.48368C5.55664 1.82223 6.09274 1.28613 6.75419 1.28613H22.8025C23.4639 1.28613 24 1.82223 24 2.48368C24 3.14512 23.4643 3.68122 22.8029 3.68122Z" fill="#333333"/>
<path d="M1.6083 4.18438C2.49654 4.18438 3.21661 3.46432 3.21661 2.57608C3.21661 1.68784 2.49654 0.967773 1.6083 0.967773C0.720062 0.967773 0 1.68784 0 2.57608C0 3.46432 0.720062 4.18438 1.6083 4.18438Z" fill="#333333"/>
<path d="M1.6083 11.6092C2.49654 11.6092 3.21661 10.8891 3.21661 10.0009C3.21661 9.11264 2.49654 8.39258 1.6083 8.39258C0.720062 8.39258 0 9.11264 0 10.0009C0 10.8891 0.720062 11.6092 1.6083 11.6092Z" fill="#333333"/>
<path d="M1.6083 19.033C2.49654 19.033 3.21661 18.313 3.21661 17.4247C3.21661 16.5365 2.49654 15.8164 1.6083 15.8164C0.720062 15.8164 0 16.5365 0 17.4247C0 18.313 0.720062 19.033 1.6083 19.033Z" fill="#333333"/>
</svg>
