<svg width="52" height="39" viewBox="0 0 52 39" fill="none" xmlns="http://www.w3.org/2000/svg">
<path d="M51.087 3.40797C51.035 2.94825 51.1908 2.28835 51.087 1.82862C50.8794 0.449461 50.7138 -0.465845 49.4683 0.249276L23.5682 14.4634L26.8057 8.14601C27.7399 5.48985 27.7817 6.21325 25.1869 4.98732C25.1349 4.93624 25.2387 5.03839 25.1869 4.98732C23.6818 4.27219 22.5202 3.40383 21.9494 4.98732L20.3306 12.884L17.0931 6.56666C15.7438 3.6551 15.2988 2.33529 12.2369 3.40797C10.9394 3.86769 10.0472 5.34074 10.6181 6.56666L13.8556 12.884L7.38059 9.72536C4.68194 8.65268 3.87363 8.75069 2.52432 11.3047C2.47242 11.4579 2.57621 11.1515 2.52432 11.3047C1.95345 12.4795 2.89755 13.9526 4.14307 14.4634L10.6181 16.0427L4.14307 19.2014C1.34063 20.0187 0.438486 19.4996 0.905559 22.3601C0.905559 22.2579 0.905559 22.4623 0.905559 22.3601C1.16505 23.8416 1.01929 24.3482 2.52432 23.9395L10.6181 22.3601L5.76183 28.6775C4.25682 30.9251 5.35659 31.5766 7.38059 33.4156C7.173 33.2622 7.53627 33.5687 7.38059 33.4156C8.47042 34.3349 8.22088 34.5394 8.99934 33.4156L13.8556 25.5188L15.4744 34.9949C15.7339 37.7021 15.9614 37.9492 18.7119 38.1536C18.4004 38.1536 18.9714 38.1536 18.7119 38.1536C19.9574 38.2048 20.4863 37.8001 20.3306 36.5742V27.0982L26.8057 34.9949C28.3626 36.8337 27.8117 37.4426 30.0432 36.5742C30.4585 36.4209 31.1948 35.1993 31.6619 34.9949C32.9074 34.4331 32.5442 34.4372 31.6619 33.4156L25.1869 25.5188L38.137 30.2569C40.109 30.8698 39.8694 30.0568 41.3745 28.6775C41.8934 28.2179 42.5781 29.0862 42.9932 28.6775C44.0313 27.6048 42.8276 25.9786 41.3745 25.5188L30.0432 22.3601L46.2308 19.2014C48.2547 18.8949 48.6899 19.5121 49.4683 17.6221C49.7277 17.0091 49.3125 16.6047 49.4683 16.0427C49.8834 14.6126 49.3545 14.2591 47.8495 14.4634L30.0432 17.6221L49.4683 6.56666C51.4923 5.39183 51.2945 5.60441 51.087 3.40797ZM20.3306 22.3601C19.1888 22.9731 17.7159 21.8535 17.0931 20.7808C16.4704 19.6569 16.0032 18.235 17.0931 17.6221C18.183 17.0091 19.7079 18.1287 20.3306 19.2014C21.0054 20.274 21.4723 21.747 20.3306 22.3601Z" fill="#FBFAF2"/>
</svg>
