<svg width="132" height="132" viewBox="0 0 132 132" fill="none" xmlns="http://www.w3.org/2000/svg">
<path d="M102.955 121.541C110.658 121.541 116.902 115.296 116.902 107.594C116.902 99.8908 110.658 93.6465 102.955 93.6465C95.252 93.6465 89.0077 99.8908 89.0077 107.594C89.0077 115.296 95.252 121.541 102.955 121.541Z" fill="url(#paint0_linear_90_367)"/>
<path d="M132 120.534C132 122.616 131.606 124.603 130.887 126.429H100.905C100.186 124.603 99.792 122.616 99.792 120.534C99.792 118.506 100.166 116.568 100.85 114.782C103.165 108.726 109.029 104.43 115.896 104.43C122.763 104.43 128.627 108.726 130.942 114.782C131.626 116.568 132 118.506 132 120.534Z" fill="url(#paint1_linear_90_367)"/>
<path d="M104.578 54.6345V126.429H11.318V54.6345L57.948 7.72266L104.578 54.6345Z" fill="url(#paint2_linear_90_367)"/>
<path d="M104.576 54.634V126.429H75.1335L11.3182 62.6135V54.634L57.9475 7.72266L104.576 54.634Z" fill="url(#paint3_linear_90_367)"/>
<path d="M90.1665 126.428H44.5572L19.4854 101.356C18.3817 100.641 17.647 99.3992 17.647 97.9908V77.8125C17.647 75.6018 19.447 73.8018 21.6578 73.8018H36.2053C37.6169 73.8018 38.8588 74.5365 39.5742 75.6402L39.4649 75.7268L90.1665 126.428Z" fill="url(#paint4_linear_90_367)"/>
<path d="M36.2057 99.6506H21.6591C20.7418 99.6506 19.9983 98.9071 19.9983 97.9898V77.8142C19.9983 76.8969 20.7418 76.1533 21.6591 76.1533H36.2054C37.1227 76.1533 37.8662 76.8969 37.8662 77.8142V97.9898C37.8665 98.9071 37.1227 99.6506 36.2057 99.6506Z" fill="#503837"/>
<path d="M36.2056 102.002H21.6591C19.4468 102.002 17.647 100.202 17.647 97.9897V77.8138C17.647 75.6015 19.4468 73.8018 21.6591 73.8018H36.2053C38.4176 73.8018 40.2174 75.6015 40.2174 77.8138V97.9897C40.2174 100.202 38.4176 102.002 36.2056 102.002ZM22.3492 97.2996H35.5152V78.5043H22.3492V97.2996Z" fill="white"/>
<path d="M104.58 82.1247V126.428H103.148L78.0769 101.356C76.9699 100.641 76.2351 99.3992 76.2351 97.9908V77.8125C76.2351 75.6018 78.0352 73.8018 80.249 73.8018H94.7932C96.205 73.8018 97.4466 74.5365 98.1623 75.6402L98.2201 75.6853L98.1814 75.7271L104.58 82.1247Z" fill="url(#paint5_linear_90_367)"/>
<path d="M94.7943 99.6506H80.248C79.3307 99.6506 78.5872 98.9071 78.5872 97.9898V77.8142C78.5872 76.8969 79.3307 76.1533 80.248 76.1533H94.7943C95.7116 76.1533 96.4551 76.8969 96.4551 77.8142V97.9898C96.4554 98.9071 95.7116 99.6506 94.7943 99.6506Z" fill="#503837"/>
<path d="M94.7943 102.002H80.248C78.0358 102.002 76.236 100.202 76.236 97.9897V77.8138C76.236 75.6015 78.0358 73.8018 80.248 73.8018H94.7943C97.0066 73.8018 98.8064 75.6015 98.8064 77.8138V97.9897C98.8064 100.202 97.0069 102.002 94.7943 102.002ZM80.9382 97.2996H94.1042V78.5043H80.9382V97.2996Z" fill="white"/>
<path d="M76.236 86.8124L80.9382 91.5149V78.6531C79.3403 78.6436 77.7702 78.5144 76.236 78.2744V86.8124Z" fill="url(#paint6_linear_90_367)"/>
<path d="M98.8064 97.9899V77.814C98.8064 76.3845 98.0525 75.1305 96.9236 74.4199C93.1144 76.6255 88.805 78.0579 84.2106 78.5042H94.1041V97.2995H86.7219L91.4236 102.002H94.794C97.0068 102.002 98.8064 100.202 98.8064 97.9899Z" fill="url(#paint7_linear_90_367)"/>
<path d="M115.123 61.1194L60.7543 6.73338C59.2048 5.18393 56.6919 5.18393 55.1422 6.73338L0.760533 61.1153C-0.253186 62.129 -0.253186 63.7729 0.760533 64.7868L3.07827 67.1046C4.09199 68.1183 5.7358 68.1183 6.74978 67.1046L57.2094 16.6445C57.6172 16.2366 58.2788 16.2366 58.6866 16.6445L109.133 67.1087C110.147 68.1224 111.791 68.1224 112.805 67.1087L115.123 64.791C116.137 63.777 116.137 62.1332 115.123 61.1194Z" fill="url(#paint8_linear_90_367)"/>
<path d="M60.7543 6.73377C59.9793 5.95878 58.964 5.57129 57.9482 5.57129V16.3386C58.2156 16.3386 58.4829 16.4407 58.6869 16.6446L109.134 67.1086C110.147 68.1223 111.791 68.1223 112.805 67.1086L115.123 64.7908C116.137 63.7771 116.137 62.1333 115.123 61.1193L60.7543 6.73377Z" fill="url(#paint9_linear_90_367)"/>
<path d="M48.2302 126.428V75.4809C48.2302 73.2338 50.0519 71.4121 52.299 71.4121H63.5971C65.8442 71.4121 67.6659 73.2338 67.6659 75.4809V126.428H48.2302Z" fill="#816965"/>
<path d="M70.0724 126.428H65.2596V76.8679C65.2596 75.1908 63.8872 73.8185 62.2102 73.8185H53.6861C52.0018 73.8185 50.6367 75.1838 50.6367 76.8679V126.428H45.8236V73.6854C45.8236 71.1008 47.9189 69.0059 50.5032 69.0059H65.3926C67.9772 69.0059 70.0722 71.1011 70.0722 73.6854L70.0724 126.428Z" fill="#503837"/>
<path d="M54.5005 92.7283C55.7124 92.7283 56.6948 91.7459 56.6948 90.5341C56.6948 89.3222 55.7124 88.3398 54.5005 88.3398C53.2887 88.3398 52.3063 89.3222 52.3063 90.5341C52.3063 91.7459 53.2887 92.7283 54.5005 92.7283Z" fill="white"/>
<path d="M104.578 113.588H11.3164V126.427H104.578V113.588Z" fill="#654E48"/>
<path d="M27.4091 121.411C27.4091 123.183 27.0739 124.873 26.4621 126.427H0.946945C0.335156 124.874 0 123.182 0 121.411C0 119.685 0.318141 118.036 0.900797 116.516C2.87074 111.362 7.8607 107.706 13.7048 107.706C19.5489 107.706 24.5386 111.362 26.5088 116.516C27.0909 118.036 27.4091 119.685 27.4091 121.411Z" fill="url(#paint10_linear_90_367)"/>
<path d="M36.2464 122.788C36.2464 124.073 36.003 125.3 35.5596 126.427H17.0505C16.6065 125.3 16.3636 124.073 16.3636 122.788C16.3636 121.537 16.5944 120.34 17.0169 119.238C18.446 115.499 22.0657 112.847 26.3052 112.847C30.5446 112.847 34.1641 115.499 35.5934 119.238C36.0157 120.34 36.2464 121.537 36.2464 122.788Z" fill="url(#paint11_linear_90_367)"/>
<path d="M96.937 69.1375L103.226 62.8486L114.536 74.1589L108.247 80.4477L96.937 69.1375Z" fill="url(#paint12_linear_90_367)"/>
<path d="M108.451 77.9796L112.069 74.3618C113.997 72.4328 117.125 72.4328 119.054 74.3618L130.553 85.861C132.482 87.7899 132.482 90.9174 130.553 92.8464L126.935 96.4643C125.006 98.3932 121.879 98.3932 119.95 96.4643L108.451 84.9651C106.522 83.0364 106.522 79.9086 108.451 77.9796Z" fill="url(#paint13_linear_90_367)"/>
<path opacity="0.6" d="M81.1308 75.1232C96.6388 75.1232 109.21 62.5515 109.21 47.0435C109.21 31.5356 96.6388 18.9639 81.1308 18.9639C65.6228 18.9639 53.0511 31.5356 53.0511 47.0435C53.0511 62.5515 65.6228 75.1232 81.1308 75.1232Z" fill="white"/>
<path d="M81.1315 74.9438C65.7465 74.9438 53.23 62.4275 53.23 47.0426C53.23 31.6576 65.7465 19.1416 81.1315 19.1416C96.5164 19.1416 109.033 31.6579 109.033 47.0428C109.033 62.4278 96.5164 74.9438 81.1315 74.9438ZM81.1315 25.3763C69.1847 25.3763 59.4652 35.0958 59.4652 47.0426C59.4652 58.9894 69.1847 68.7089 81.1315 68.7089C93.0782 68.7089 102.798 58.9894 102.798 47.0426C102.798 35.0958 93.0782 25.3763 81.1315 25.3763Z" fill="#D54003"/>
<path d="M81.1316 78.654C63.7006 78.654 49.5199 64.4733 49.5199 47.0423C49.5199 29.6114 63.7009 15.4307 81.1316 15.4307C98.5623 15.4307 112.743 29.6114 112.743 47.0423C112.743 64.4733 98.5625 78.654 81.1316 78.654ZM81.1316 22.495C67.5959 22.495 56.584 33.5072 56.584 47.0426C56.584 60.578 67.5962 71.5902 81.1316 71.5902C94.667 71.5902 105.679 60.578 105.679 47.0426C105.679 33.5072 94.667 22.495 81.1316 22.495Z" fill="#FF5D00"/>
<defs>
<linearGradient id="paint0_linear_90_367" x1="94.7475" y1="99.3902" x2="112.702" y2="117.342" gradientUnits="userSpaceOnUse">
<stop stop-color="#9EB644"/>
<stop offset="1" stop-color="#738611"/>
</linearGradient>
<linearGradient id="paint1_linear_90_367" x1="106.812" y1="110.508" x2="126.684" y2="130.38" gradientUnits="userSpaceOnUse">
<stop stop-color="#9EB644"/>
<stop offset="1" stop-color="#738611"/>
</linearGradient>
<linearGradient id="paint2_linear_90_367" x1="57.9467" y1="67.8991" x2="57.9467" y2="151.93" gradientUnits="userSpaceOnUse">
<stop stop-color="#E2EDF2"/>
<stop offset="1" stop-color="#9FC7E2"/>
</linearGradient>
<linearGradient id="paint3_linear_90_367" x1="65.6045" y1="66.1448" x2="30.4751" y2="31.0128" gradientUnits="userSpaceOnUse">
<stop stop-color="#E2EDF2" stop-opacity="0"/>
<stop offset="1" stop-color="#A5B0B8"/>
</linearGradient>
<linearGradient id="paint4_linear_90_367" x1="66.9198" y1="125.892" x2="18.4199" y2="77.3893" gradientUnits="userSpaceOnUse">
<stop stop-color="#E2EDF2" stop-opacity="0"/>
<stop offset="1" stop-color="#A5B0B8"/>
</linearGradient>
<linearGradient id="paint5_linear_90_367" x1="122.931" y1="123.311" x2="73.631" y2="74.0142" gradientUnits="userSpaceOnUse">
<stop stop-color="#E2EDF2" stop-opacity="0"/>
<stop offset="1" stop-color="#A5B0B8"/>
</linearGradient>
<linearGradient id="paint6_linear_90_367" x1="80.4747" y1="92.3256" x2="76.8771" y2="74.0608" gradientUnits="userSpaceOnUse">
<stop stop-color="#E2EDF2" stop-opacity="0"/>
<stop offset="1" stop-color="#A5B0B8"/>
</linearGradient>
<linearGradient id="paint7_linear_90_367" x1="93.2446" y1="89.8102" x2="89.647" y2="71.5454" gradientUnits="userSpaceOnUse">
<stop stop-color="#E2EDF2" stop-opacity="0"/>
<stop offset="1" stop-color="#A5B0B8"/>
</linearGradient>
<linearGradient id="paint8_linear_90_367" x1="57.9403" y1="42.3581" x2="57.9403" y2="89.5795" gradientUnits="userSpaceOnUse">
<stop stop-color="#4975AD"/>
<stop offset="1" stop-color="#114F77"/>
</linearGradient>
<linearGradient id="paint9_linear_90_367" x1="103.752" y1="54.1449" x2="77.5679" y2="30.1706" gradientUnits="userSpaceOnUse">
<stop stop-color="#4975AD" stop-opacity="0"/>
<stop offset="1" stop-color="#114F77"/>
</linearGradient>
<linearGradient id="paint10_linear_90_367" x1="5.97599" y1="112.879" x2="22.8872" y2="129.79" gradientUnits="userSpaceOnUse">
<stop stop-color="#9EB644"/>
<stop offset="1" stop-color="#738611"/>
</linearGradient>
<linearGradient id="paint11_linear_90_367" x1="20.6985" y1="116.6" x2="32.966" y2="128.866" gradientUnits="userSpaceOnUse">
<stop stop-color="#9EB644"/>
<stop offset="1" stop-color="#738611"/>
</linearGradient>
<linearGradient id="paint12_linear_90_367" x1="108.879" y1="68.5051" x2="102.59" y2="74.7939" gradientUnits="userSpaceOnUse">
<stop stop-color="#FFE7A5"/>
<stop offset="0.966" stop-color="#FFBF5C"/>
</linearGradient>
<linearGradient id="paint13_linear_90_367" x1="122.263" y1="82.2864" x2="113.986" y2="91.653" gradientUnits="userSpaceOnUse">
<stop stop-color="#FF5D00"/>
<stop offset="1" stop-color="#D54003"/>
</linearGradient>
</defs>
</svg>
