<svg width="132" height="128" viewBox="0 0 132 128" fill="none" xmlns="http://www.w3.org/2000/svg">
<path d="M129.938 123.196H126.125V63.8918C126.125 63.1157 125.689 62.4042 124.998 62.0536L93.3411 45.9506V15.472C93.3411 14.3325 92.4181 13.4095 91.2786 13.4095H87.4063V2.74121C87.4063 1.60168 86.4833 0.678711 85.3438 0.678711H42.1034C40.9639 0.678711 40.0409 1.60168 40.0409 2.74121V13.4069H36.1686C35.0291 13.4069 34.1061 14.3299 34.1061 15.4694V38.4843H12.6819C11.5424 38.4843 10.6194 39.4073 10.6194 40.5468V86.7649L0.68329 94.0094C-0.0592105 94.5508 -0.221632 95.5898 0.319774 96.3323L4.31329 101.798C4.8547 102.538 5.89368 102.7 6.6336 102.159L10.8024 99.1167V123.189H6.80634C5.66681 123.189 4.74384 124.112 4.74384 125.251C4.74384 126.391 5.66681 127.314 6.80634 127.314H129.938C131.077 127.314 132 126.391 132 125.251C132 124.119 131.077 123.196 129.938 123.196Z" fill="#E1EFFB"/>
<path d="M124.998 62.0512L93.3411 45.9482V86.6672L103.277 93.9091C104.02 94.4505 104.182 95.4895 103.641 96.232L99.6472 101.698C99.1058 102.438 98.0668 102.6 97.3269 102.061L93.3411 99.1556V123.093H126.125V63.892C126.125 63.1134 125.689 62.4044 124.998 62.0512Z" fill="#8AC9FE"/>
<path d="M34.2427 38.4873H12.6819C11.5424 38.4873 10.6194 39.4103 10.6194 40.5498V86.7679L34.2427 69.5408V38.4873Z" fill="#8AC9FE"/>
<path d="M114.314 67.8496H101.029C99.8895 67.8496 98.9666 68.7726 98.9666 69.9121V83.174C98.9666 84.3135 99.8895 85.2365 101.029 85.2365H114.314C115.454 85.2365 116.377 84.3135 116.377 83.174V69.9121C116.377 68.7726 115.451 67.8496 114.314 67.8496Z" fill="#ECEFF1"/>
<path d="M35.1862 68.8543C35.7688 68.4289 36.5603 68.4289 37.143 68.8543L51.9053 79.6154L66.8069 68.7512C67.3896 68.3258 68.181 68.3258 68.7637 68.7512L93.341 86.6666V15.4717C93.341 14.3321 92.418 13.4092 91.2785 13.4092H36.1685C35.0289 13.4092 34.106 14.3321 34.106 15.4717V69.6432L35.1862 68.8543Z" fill="#81A7C6"/>
<path d="M103.277 93.9087L68.7636 68.7487C68.181 68.3233 67.3895 68.3233 66.8068 68.7487L51.9053 79.6129L60.4672 85.8546L67.7839 80.5179L97.3241 102.056C98.064 102.597 99.103 102.435 99.6444 101.692L103.638 96.2264C104.182 95.4916 104.019 94.4501 103.277 93.9087Z" fill="#FF4C4C"/>
<path d="M114.314 88.9951H101.029C99.9823 88.9951 99.1212 89.7737 98.9872 90.7818L103.277 93.909C104.02 94.4504 104.182 95.4894 103.641 96.2319L99.6472 101.698C99.4667 101.945 99.2295 102.126 98.9666 102.242V103.126V104.319C98.9666 105.459 99.8895 106.382 101.029 106.382H114.314C115.454 106.382 116.377 105.459 116.377 104.319V91.0576C116.377 89.9181 115.451 88.9951 114.314 88.9951Z" fill="#ECEFF1"/>
<path d="M46.3289 123.196V106.748C46.3289 105.686 45.4678 104.827 44.4082 104.827H27.9236C26.8614 104.827 26.0029 105.688 26.0029 106.748V123.196H46.3289Z" fill="#F1BA84"/>
<path d="M36.1658 106.745V123.193H46.3288V106.745C46.3288 105.683 45.4677 104.824 44.4081 104.824H34.2451C35.3047 104.824 36.1658 105.685 36.1658 106.745Z" fill="#DE9252"/>
<path d="M35.1863 68.8545L0.68329 94.0144C-0.0592105 94.5559 -0.221632 95.5948 0.319774 96.3373L4.31329 101.803C4.8547 102.543 5.89368 102.705 6.6336 102.164L36.1634 80.6262L65.7036 102.164C66.4435 102.705 67.4825 102.543 68.0239 101.8L72.0174 96.3348C72.5588 95.5923 72.3964 94.5533 71.6539 94.0119L37.1431 68.8519C36.5605 68.4291 35.769 68.4291 35.1863 68.8545Z" fill="#FF4C4C"/>
<path d="M71.6564 94.0145L71.0325 93.5608L68.0212 97.6832C67.4798 98.4231 66.4408 98.5855 65.7009 98.0467L36.1608 76.5039L6.62834 98.0416C5.88842 98.583 4.84943 98.4206 4.30803 97.6806L1.29935 93.5634L0.680604 94.0145C-0.061896 94.5559 -0.224318 95.5949 0.317088 96.3374L4.3106 101.803C4.85201 102.543 5.89099 102.705 6.63092 102.164L36.1608 80.6263L65.7009 102.164C66.4408 102.705 67.4798 102.543 68.0212 101.8L72.0147 96.3348C72.5613 95.5949 72.3989 94.5559 71.6564 94.0145Z" fill="#F33939"/>
<path d="M36.1684 100.491C39.5315 100.491 42.2579 97.7669 42.2579 94.4066C42.2579 91.0463 39.5315 88.3223 36.1684 88.3223C32.8052 88.3223 30.0789 91.0463 30.0789 94.4066C30.0789 97.7669 32.8052 100.491 36.1684 100.491Z" fill="#CCDFED"/>
<path d="M61.8442 27.6152V40.8771C61.8442 42.0166 60.9212 42.9396 59.7817 42.9396H46.4966C45.3571 42.9396 44.4341 42.0166 44.4341 40.8771V27.6152C44.4341 26.4757 45.3571 25.5527 46.4966 25.5527H59.7817C60.9212 25.5527 61.8442 26.4783 61.8442 27.6152ZM80.9532 25.5527H67.6759C66.5363 25.5527 65.6134 26.4757 65.6134 27.6152V40.8771C65.6134 42.0166 66.5363 42.9396 67.6759 42.9396H80.9532C82.0928 42.9396 83.0157 42.0166 83.0157 40.8771V27.6152C83.0157 26.4783 82.0928 25.5527 80.9532 25.5527ZM59.7817 46.6985H46.4966C45.3571 46.6985 44.4341 47.6215 44.4341 48.761V62.0229C44.4341 63.1624 45.3571 64.0854 46.4966 64.0854H59.7817C60.9212 64.0854 61.8442 63.1624 61.8442 62.0229V48.761C61.8442 47.6215 60.9212 46.6985 59.7817 46.6985ZM80.9532 46.6985H67.6759C66.5363 46.6985 65.6134 47.6215 65.6134 48.761V62.0229C65.6134 63.1624 66.5363 64.0854 67.6759 64.0854H80.9532C82.0928 64.0854 83.0157 63.1624 83.0157 62.0229V48.761C83.0157 47.6215 82.0928 46.6985 80.9532 46.6985Z" fill="#ECEFF1"/>
<path d="M114.314 67.8496H110.529C111.669 67.8496 112.592 68.7726 112.592 69.9121V83.174C112.592 84.3135 111.669 85.2365 110.529 85.2365H114.314C115.454 85.2365 116.376 84.3135 116.376 83.174V69.9121C116.376 68.7726 115.451 67.8496 114.314 67.8496Z" fill="#CCDFED"/>
<path d="M114.314 88.9951H110.529C111.669 88.9951 112.592 89.9181 112.592 91.0576V104.319C112.592 105.459 111.669 106.382 110.529 106.382H114.314C115.454 106.382 116.376 105.459 116.376 104.319V91.0576C116.376 89.9181 115.451 88.9951 114.314 88.9951Z" fill="#CCDFED"/>
<path d="M61.8261 62.0226V48.7607C61.8261 48.6989 61.8312 48.6396 61.8364 48.5803C61.7436 47.5258 60.8619 46.6982 59.7842 46.6982H55.9995C57.139 46.6982 58.062 47.6212 58.062 48.7607V62.0226C58.062 63.1621 57.139 64.0851 55.9995 64.0851H59.7842C60.8619 64.0851 61.7462 63.2575 61.8364 62.2031C61.8287 62.1438 61.8261 62.0819 61.8261 62.0226Z" fill="#CCDFED"/>
<path d="M58.0569 27.6152V40.8771C58.0569 42.0166 57.1339 42.9396 55.9944 42.9396H59.7791C60.8567 42.9396 61.741 42.112 61.8313 41.0576C61.8261 40.9983 61.8209 40.9364 61.8209 40.8771V27.6152C61.8209 27.5534 61.8261 27.4941 61.8313 27.4348C61.7384 26.3803 60.8567 25.5527 59.7791 25.5527H55.9944C57.1339 25.5527 58.0569 26.4783 58.0569 27.6152Z" fill="#CCDFED"/>
<path d="M80.9531 25.5527H77.1685C78.308 25.5527 79.231 26.4757 79.231 27.6152V40.8771C79.231 42.0166 78.308 42.9396 77.1685 42.9396H80.9531C82.0927 42.9396 83.0156 42.0166 83.0156 40.8771V27.6152C83.0156 26.4783 82.0927 25.5527 80.9531 25.5527Z" fill="#CCDFED"/>
<path d="M80.9531 46.6982H77.1685C78.308 46.6982 79.231 47.6212 79.231 48.7607V62.0226C79.231 63.1621 78.308 64.0851 77.1685 64.0851H80.9531C82.0927 64.0851 83.0156 63.1621 83.0156 62.0226V48.7607C83.0156 47.6212 82.0927 46.6982 80.9531 46.6982Z" fill="#CCDFED"/>
<path d="M129.937 127.321H6.80615C5.66662 127.321 4.74365 126.398 4.74365 125.259C4.74365 124.119 5.66662 123.196 6.80615 123.196H129.937C131.077 123.196 132 124.119 132 125.259C132 126.398 131.077 127.321 129.937 127.321Z" fill="#2D5871"/>
<path d="M57.6287 123.196H61.5243V99.1163L36.1659 80.626L34.2168 82.0465L57.6287 99.1163V123.196Z" fill="#CCDFED"/>
<path d="M89.2496 123.091H93.1451V99.0138L67.7841 80.5234L65.8376 81.944L89.2496 99.0138V123.091Z" fill="#CCDFED"/>
<path d="M103.277 93.9084L102.653 93.4547L99.6418 97.5771C99.1004 98.317 98.0614 98.4795 97.3215 97.9406L67.7814 76.4004L57.6416 83.7945L60.4698 85.857L67.7865 80.5202L97.3267 102.058C98.0666 102.599 99.1056 102.437 99.647 101.694L103.641 96.2288C104.182 95.4914 104.019 94.4498 103.277 93.9084Z" fill="#F33939"/>
<path d="M87.4061 13.4095V2.74121C87.4061 1.60168 86.4831 0.678711 85.3436 0.678711H42.1033C40.9637 0.678711 40.0408 1.60168 40.0408 2.74121V13.4069H87.4061V13.4095Z" fill="#5C90B9"/>
<path d="M89.2495 15.4794V83.6837L93.341 86.6666V15.4717C93.341 14.3321 92.418 13.4092 91.2785 13.4092H87.187C88.3265 13.4092 89.2495 14.3347 89.2495 15.4794Z" fill="#79A3BF"/>
<path d="M34.1059 46.6982H21.6587C20.5192 46.6982 19.5962 47.6212 19.5962 48.7607V62.0226C19.5962 63.1621 20.5192 64.0851 21.6587 64.0851H34.1085V46.6982H34.1059Z" fill="#ECEFF1"/>
<path d="M29.6716 38.4873H34.106V46.6986H29.6716V38.4873Z" fill="#60B7FF"/>
<path d="M29.6716 46.6982H34.106V64H29.6716V46.6982Z" fill="#E1EFFB"/>
<path d="M34.106 69.6408V64.085H29.6716V72.8738L34.106 69.6408Z" fill="#60B7FF"/>
<path d="M121.69 123.091H126.124V63.8919C126.124 63.1159 125.689 62.4043 124.998 62.0537L121.125 60.084C121.481 60.4733 121.69 60.9941 121.69 61.5484V123.091Z" fill="#60B7FF"/>
</svg>
