<svg width="200" height="39" viewBox="0 0 200 39" fill="none" xmlns="http://www.w3.org/2000/svg">
<path d="M50.2985 3.40797C50.2465 2.94825 50.4023 2.28835 50.2985 1.82862C50.0908 0.449461 49.9252 -0.465845 48.6797 0.249276L22.7796 14.4634L26.0171 8.14601C26.9513 5.48985 26.9932 6.21325 24.3983 4.98732C24.3464 4.93624 24.4502 5.03839 24.3983 4.98732C22.8932 4.27219 21.7316 3.40383 21.1608 4.98732L19.5421 12.884L16.3046 6.56666C14.9552 3.6551 14.5102 2.33529 11.4483 3.40797C10.1509 3.86769 9.25865 5.34074 9.82953 6.56666L13.067 12.884L6.59201 9.72536C3.89336 8.65268 3.08506 8.75069 1.73574 11.3047C1.68385 11.4579 1.78764 11.1515 1.73574 11.3047C1.16487 12.4795 2.10897 13.9526 3.3545 14.4634L9.82953 16.0427L3.3545 19.2014C0.552056 20.0187 -0.350088 19.4996 0.116985 22.3601C0.116985 22.2579 0.116985 22.4623 0.116985 22.3601C0.376472 23.8416 0.230719 24.3482 1.73574 23.9395L9.82953 22.3601L4.97326 28.6775C3.46824 30.9251 4.56802 31.5766 6.59201 33.4156C6.38442 33.2622 6.74769 33.5687 6.59201 33.4156C7.68185 34.3349 7.43231 34.5394 8.21077 33.4156L13.067 25.5188L14.6858 34.9949C14.9453 37.7021 15.1728 37.9492 17.9233 38.1536C17.6119 38.1536 18.1828 38.1536 17.9233 38.1536C19.1688 38.2048 19.6977 37.8001 19.5421 36.5742V27.0982L26.0171 34.9949C27.5741 36.8337 27.0231 37.4426 29.2546 36.5742C29.6699 36.4209 30.4063 35.1993 30.8734 34.9949C32.1189 34.4331 31.7556 34.4372 30.8734 33.4156L24.3983 25.5188L37.3484 30.2569C39.3205 30.8698 39.0808 30.0568 40.5859 28.6775C41.1048 28.2179 41.7896 29.0862 42.2047 28.6775C43.2427 27.6048 42.039 25.9786 40.5859 25.5188L29.2546 22.3601L45.4422 19.2014C47.4661 18.8949 47.9013 19.5121 48.6797 17.6221C48.9392 17.0091 48.5239 16.6047 48.6797 16.0427C49.0948 14.6126 48.5659 14.2591 47.0609 14.4634L29.2546 17.6221L48.6797 6.56666C50.7038 5.39183 50.5059 5.60441 50.2985 3.40797ZM19.5421 22.3601C18.4002 22.9731 16.9273 21.8535 16.3046 20.7808C15.6818 19.6569 15.2147 18.235 16.3046 17.6221C17.3944 17.0091 18.9193 18.1287 19.5421 19.2014C20.2168 20.274 20.6838 21.747 19.5421 22.3601Z" fill="#FBFAF2"/>
<path d="M74.3141 14.4639C74.2109 13.5476 73.785 12.8378 73.0365 12.3345C72.288 11.8248 71.3459 11.5699 70.2103 11.5699C69.3973 11.5699 68.6939 11.699 68.1003 11.9571C67.5067 12.2087 67.0453 12.5571 66.7162 13.0024C66.3936 13.4411 66.2323 13.9412 66.2323 14.5026C66.2323 14.9736 66.342 15.3801 66.5614 15.7221C66.7872 16.0641 67.0808 16.3513 67.4421 16.5835C67.8099 16.8094 68.2035 16.9997 68.6229 17.1546C69.0424 17.303 69.4456 17.4256 69.8328 17.5224L71.7686 18.0257C72.4009 18.1806 73.0494 18.3903 73.714 18.6548C74.3786 18.9194 74.9948 19.2678 75.5627 19.7001C76.1305 20.1324 76.5886 20.668 76.9371 21.3068C77.292 21.9456 77.4694 22.7102 77.4694 23.6007C77.4694 24.7234 77.179 25.7204 76.5983 26.5915C76.024 27.4626 75.1884 28.1498 74.0915 28.653C73.001 29.1563 71.6815 29.408 70.1328 29.408C68.6488 29.408 67.3647 29.1725 66.2807 28.7014C65.1966 28.2304 64.3481 27.5626 63.7351 26.6979C63.1221 25.8268 62.7834 24.7944 62.7189 23.6007H65.7193C65.7774 24.3169 66.0097 24.9138 66.4162 25.3913C66.8291 25.8623 67.355 26.214 67.9938 26.4463C68.6391 26.6721 69.3456 26.785 70.1135 26.785C70.9588 26.785 71.7105 26.6528 72.3687 26.3882C73.0333 26.1172 73.5559 25.7429 73.9366 25.2655C74.3173 24.7815 74.5077 24.2169 74.5077 23.5717C74.5077 22.9845 74.3399 22.5038 74.0044 22.1295C73.6753 21.7553 73.2268 21.4455 72.659 21.2003C72.0976 20.9552 71.4621 20.739 70.7523 20.5519L68.41 19.9131C66.8227 19.4807 65.5644 18.8452 64.6353 18.0063C63.7125 17.1675 63.2512 16.0577 63.2512 14.6768C63.2512 13.5347 63.5609 12.5378 64.1804 11.6861C64.7998 10.8343 65.6386 10.1729 66.6969 9.70189C67.7551 9.2244 68.9488 8.98566 70.278 8.98566C71.6202 8.98566 72.8042 9.22118 73.8302 9.69221C74.8626 10.1633 75.6756 10.8117 76.2692 11.6377C76.8629 12.4571 77.1726 13.3992 77.1984 14.4639H74.3141ZM83.705 20.2518V29.0789H80.811V9.25667H83.6663V16.6319H83.8502C84.1986 15.8318 84.7309 15.1962 85.4472 14.7252C86.1634 14.2542 87.099 14.0187 88.254 14.0187C89.2735 14.0187 90.164 14.2284 90.9254 14.6478C91.6933 15.0672 92.2869 15.6931 92.7063 16.5255C93.1322 17.3514 93.3451 18.3838 93.3451 19.6227V29.0789H90.4511V19.9711C90.4511 18.8807 90.1704 18.0354 89.6091 17.4353C89.0477 16.8287 88.2669 16.5255 87.2668 16.5255C86.5828 16.5255 85.9698 16.6707 85.4278 16.961C84.8923 17.2514 84.4696 17.6773 84.1599 18.2386C83.8566 18.7935 83.705 19.4646 83.705 20.2518ZM103.469 29.379C102.075 29.379 100.859 29.0596 99.8202 28.4208C98.7814 27.782 97.9748 26.8883 97.4005 25.7397C96.8263 24.5912 96.5391 23.249 96.5391 21.7133C96.5391 20.1712 96.8263 18.8226 97.4005 17.6676C97.9748 16.5126 98.7814 15.6157 99.8202 14.9769C100.859 14.3381 102.075 14.0187 103.469 14.0187C104.863 14.0187 106.079 14.3381 107.118 14.9769C108.157 15.6157 108.964 16.5126 109.538 17.6676C110.112 18.8226 110.399 20.1712 110.399 21.7133C110.399 23.249 110.112 24.5912 109.538 25.7397C108.964 26.8883 108.157 27.782 107.118 28.4208C106.079 29.0596 104.863 29.379 103.469 29.379ZM103.479 26.9496C104.382 26.9496 105.131 26.7108 105.724 26.2333C106.318 25.7559 106.757 25.1203 107.041 24.3266C107.331 23.5329 107.476 22.6586 107.476 21.7036C107.476 20.7551 107.331 19.884 107.041 19.0904C106.757 18.2902 106.318 17.6482 105.724 17.1643C105.131 16.6803 104.382 16.4384 103.479 16.4384C102.569 16.4384 101.814 16.6803 101.214 17.1643C100.62 17.6482 100.178 18.2902 99.888 19.0904C99.6041 19.884 99.4621 20.7551 99.4621 21.7036C99.4621 22.6586 99.6041 23.5329 99.888 24.3266C100.178 25.1203 100.62 25.7559 101.214 26.2333C101.814 26.7108 102.569 26.9496 103.479 26.9496ZM113.63 29.0789V14.2122H116.427V16.5739H116.582C116.853 15.7737 117.33 15.1446 118.014 14.6865C118.704 14.2219 119.485 13.9896 120.356 13.9896C120.537 13.9896 120.75 13.9961 120.995 14.009C121.247 14.0219 121.444 14.038 121.586 14.0574V16.8255C121.469 16.7933 121.263 16.7578 120.966 16.719C120.669 16.6739 120.372 16.6513 120.076 16.6513C119.392 16.6513 118.782 16.7965 118.246 17.0868C117.717 17.3708 117.298 17.7676 116.988 18.2773C116.678 18.7806 116.523 19.3549 116.523 20.0002V29.0789H113.63ZM131.908 14.2122V16.5351H123.787V14.2122H131.908ZM125.965 10.6504H128.859V24.7138C128.859 25.2751 128.943 25.6978 129.111 25.9817C129.279 26.2592 129.495 26.4495 129.759 26.5527C130.03 26.6495 130.324 26.6979 130.64 26.6979C130.872 26.6979 131.076 26.6818 131.25 26.6495C131.424 26.6173 131.56 26.5915 131.656 26.5721L132.179 28.9628C132.011 29.0273 131.772 29.0918 131.463 29.1563C131.153 29.2273 130.766 29.266 130.301 29.2725C129.54 29.2854 128.83 29.1499 128.172 28.866C127.514 28.5821 126.981 28.1433 126.575 27.5497C126.168 26.956 125.965 26.2108 125.965 25.3139V10.6504ZM153.366 14.4639C153.263 13.5476 152.837 12.8378 152.088 12.3345C151.34 11.8248 150.398 11.5699 149.262 11.5699C148.449 11.5699 147.746 11.699 147.152 11.9571C146.559 12.2087 146.097 12.5571 145.768 13.0024C145.445 13.4411 145.284 13.9412 145.284 14.5026C145.284 14.9736 145.394 15.3801 145.613 15.7221C145.839 16.0641 146.133 16.3513 146.494 16.5835C146.862 16.8094 147.255 16.9997 147.675 17.1546C148.094 17.303 148.498 17.4256 148.885 17.5224L150.82 18.0257C151.453 18.1806 152.101 18.3903 152.766 18.6548C153.43 18.9194 154.047 19.2678 154.615 19.7001C155.182 20.1324 155.64 20.668 155.989 21.3068C156.344 21.9456 156.521 22.7102 156.521 23.6007C156.521 24.7234 156.231 25.7204 155.65 26.5915C155.076 27.4626 154.24 28.1498 153.143 28.653C152.053 29.1563 150.733 29.408 149.185 29.408C147.701 29.408 146.417 29.1725 145.333 28.7014C144.249 28.2304 143.4 27.5626 142.787 26.6979C142.174 25.8268 141.835 24.7944 141.771 23.6007H144.771C144.829 24.3169 145.062 24.9138 145.468 25.3913C145.881 25.8623 146.407 26.214 147.046 26.4463C147.691 26.6721 148.398 26.785 149.165 26.785C150.011 26.785 150.762 26.6528 151.421 26.3882C152.085 26.1172 152.608 25.7429 152.988 25.2655C153.369 24.7815 153.56 24.2169 153.56 23.5717C153.56 22.9845 153.392 22.5038 153.056 22.1295C152.727 21.7553 152.279 21.4455 151.711 21.2003C151.15 20.9552 150.514 20.739 149.804 20.5519L147.462 19.9131C145.875 19.4807 144.616 18.8452 143.687 18.0063C142.764 17.1675 142.303 16.0577 142.303 14.6768C142.303 13.5347 142.613 12.5378 143.232 11.6861C143.852 10.8343 144.691 10.1729 145.749 9.70189C146.807 9.2244 148.001 8.98566 149.33 8.98566C150.672 8.98566 151.856 9.22118 152.882 9.69221C153.914 10.1633 154.727 10.8117 155.321 11.6377C155.915 12.4571 156.224 13.3992 156.25 14.4639H153.366ZM166.803 14.2122V16.5351H158.682V14.2122H166.803ZM160.86 10.6504H163.754V24.7138C163.754 25.2751 163.838 25.6978 164.005 25.9817C164.173 26.2592 164.389 26.4495 164.654 26.5527C164.925 26.6495 165.219 26.6979 165.535 26.6979C165.767 26.6979 165.97 26.6818 166.144 26.6495C166.319 26.6173 166.454 26.5915 166.551 26.5721L167.074 28.9628C166.906 29.0273 166.667 29.0918 166.357 29.1563C166.048 29.2273 165.661 29.266 165.196 29.2725C164.435 29.2854 163.725 29.1499 163.067 28.866C162.408 28.5821 161.876 28.1433 161.47 27.5497C161.063 26.956 160.86 26.2108 160.86 25.3139V10.6504ZM174.33 29.408C173.388 29.408 172.537 29.2338 171.775 28.8853C171.014 28.5305 170.41 28.0175 169.965 27.3464C169.526 26.6753 169.307 25.8526 169.307 24.8783C169.307 24.0395 169.468 23.349 169.791 22.807C170.114 22.265 170.549 21.8359 171.098 21.5197C171.646 21.2036 172.259 20.9648 172.937 20.8035C173.614 20.6422 174.305 20.5196 175.008 20.4357C175.898 20.3325 176.621 20.2486 177.176 20.1841C177.731 20.1131 178.134 20.0002 178.386 19.8453C178.637 19.6904 178.763 19.4388 178.763 19.0904V19.0226C178.763 18.1773 178.524 17.5224 178.047 17.0578C177.576 16.5932 176.873 16.3609 175.937 16.3609C174.963 16.3609 174.195 16.5771 173.633 17.0094C173.079 17.4353 172.695 17.9095 172.482 18.4322L169.762 17.8128C170.085 16.9094 170.556 16.1803 171.175 15.6253C171.801 15.064 172.52 14.6575 173.333 14.4058C174.146 14.1477 175.001 14.0187 175.898 14.0187C176.492 14.0187 177.121 14.0896 177.786 14.2316C178.457 14.3671 179.083 14.6187 179.663 14.9865C180.251 15.3543 180.731 15.8802 181.106 16.5642C181.48 17.2417 181.667 18.1225 181.667 19.2065V29.0789H178.841V27.0464H178.725C178.537 27.4206 178.257 27.7884 177.882 28.1498C177.508 28.5111 177.027 28.8111 176.44 29.0499C175.853 29.2886 175.15 29.408 174.33 29.408ZM174.959 27.0851C175.76 27.0851 176.444 26.927 177.011 26.6108C177.586 26.2946 178.021 25.8817 178.318 25.3719C178.621 24.8557 178.773 24.304 178.773 23.7168V21.8004C178.67 21.9037 178.47 22.0005 178.173 22.0908C177.882 22.1747 177.55 22.2489 177.176 22.3134C176.802 22.3715 176.437 22.4263 176.082 22.478C175.727 22.5231 175.43 22.5618 175.192 22.5941C174.63 22.6651 174.117 22.7845 173.653 22.9522C173.195 23.12 172.827 23.362 172.549 23.6781C172.278 23.9879 172.143 24.4008 172.143 24.917C172.143 25.6333 172.407 26.1753 172.937 26.5431C173.466 26.9044 174.14 27.0851 174.959 27.0851ZM186.818 34.6539C186.386 34.6539 185.993 34.6184 185.638 34.5475C185.283 34.4829 185.018 34.412 184.844 34.3345L185.541 31.9632C186.07 32.1052 186.541 32.1665 186.954 32.1471C187.367 32.1278 187.731 31.9729 188.048 31.6825C188.37 31.3922 188.654 30.9179 188.899 30.2597L189.258 29.2725L183.818 14.2122H186.915L190.68 25.7494H190.835L194.6 14.2122H197.707L191.58 31.0631C191.297 31.8374 190.935 32.4923 190.496 33.0279C190.058 33.5699 189.535 33.9764 188.928 34.2474C188.322 34.5184 187.619 34.6539 186.818 34.6539Z" fill="#FBFAF2"/>
</svg>
